#!OML:ASF F:\VICON\USERDATA\INSTALL\Justin_Nancy\Justin_Nancy.ASF
:FULLY-SPECIFIED
:DEGREES
117
root -10.3566 17.3206 -15.9637 2.48735 -7.07079 -5.24665
lowerback 5.95071 0.927853 3.98925
upperback 0.0746472 1.61272 3.17755
thorax -3.24516 0.761212 0.90461
lowerneck -15.3372 -3.20607 -9.54365
upperneck 21.9575 -3.29282 5.20076
head 9.74274 -1.7472 2.98773
rclavicle -8.34896e-015 -2.06736e-014
rhumerus -26.0558 -7.58231 -79.834
rradius 36.4935
rwrist 3.23176
rhand -13.0814 14.339
rfingers 7.12502
rthumb 13.0147 -15.235
lclavicle -8.34896e-015 -2.06736e-014
lhumerus -35.3548 14.9319 83.6683
lradius 24.7216
lwrist -9.8854
lhand -16.9335 23.5557
lfingers 7.12502
lthumb 9.29955 53.3306
rfemur 6.42311 4.8848 31.6145
rtibia 19.0928
rfoot -14.3551 -6.35566
rtoes -1.34526
lfemur -30.1164 -2.0905 -13.1893
ltibia 20.2694
lfoot -7.09712 8.61366
ltoes -8.21456
118
root -10.3533 17.3032 -15.8165 2.26249 -7.40497 -5.4906
lowerback 6.0706 1.07141 4.1652
upperback 0.210642 1.81693 3.1986
thorax -3.1644 0.862034 0.809616
lowerneck -15.3181 -3.18401 -9.43458
upperneck 22.0011 -3.31499 5.28835
head 9.75481 -1.73937 2.99848
rclavicle 1.30701e-014 -9.93923e-015
rhumerus -26.0923 -8.02606 -79.7752
rradius 36.3961
rwrist 3.21556
rhand -12.8499 15.3476
rfingers 7.12502
rthumb 13.2379 -14.212
lclavicle 1.30701e-014 -9.93923e-015
lhumerus -35.1936 14.7824 83.688
lradius 24.4736
lwrist -9.88593
lhand -17.3446 23.2547
lfingers 7.12502
lthumb 8.90285 53.0469
rfemur 6.98067 5.14906 31.8746
rtibia 19.6263
rfoot -14.2469 -6.49129
rtoes -3.83404
lfemur -29.7375 -1.83227 -13.0755
ltibia 21.0133
lfoot -7.0056 7.88132
ltoes -7.75935
119
root -10.3496 17.3003 -15.671 1.92897 -7.63616 -5.56481
lowerback 6.46101 1.17031 4.11858
upperback 0.296751 1.96796 3.24655
thorax -3.29529 0.936585 0.864586
lowerneck -15.324 -3.28486 -9.68281
upperneck 21.9749 -3.46115 5.57452
head 9.76865 -1.79548 3.12177
rclavicle 7.30534e-015 -3.29983e-014
rhumerus -26.1027 -8.67696 -79.5868
rradius 36.1145
rwrist 3.44897
rhand -12.8353 15.7518
rfingers 7.12502
rthumb 13.2519 -13.807
lclavicle 7.30534e-015 -3.29983e-014
lhumerus -35.2107 14.7874 83.6285
lradius 24.3027
lwrist -9.99542
lhand -17.8258 21.2473
lfingers 7.12502
lthumb 8.43848 51.0587
rfemur 7.51517 5.3891 31.9736
rtibia 20.3149
rfoot -14.0632 -6.42924
rtoes -3.08327
lfemur -29.172 -1.57924 -13.1724
ltibia 21.6431
lfoot -7.09431 6.6931
ltoes -7.34394
120
root -10.3423 17.3044 -15.5171 1.79055 -7.77225 -5.47487
lowerback 6.41458 1.23193 4.03161
upperback 0.387867 2.03398 3.19372
thorax -3.17475 0.972745 0.854456
lowerneck -15.3006 -3.33989 -9.78375
upperneck 21.8542 -3.5593 5.77163
head 9.7352 -1.82616 3.19388
rclavicle -4.47266e-016 -1.27222e-014
rhumerus -26.1425 -9.22813 -79.5141
rradius 36.1338
rwrist 3.57742
rhand -12.7997 15.0007
rfingers 7.12502
rthumb 13.2862 -14.5558
lclavicle -4.47266e-016 -1.27222e-014
lhumerus -35.1231 14.8348 83.5045
lradius 24.0877
lwrist -10.3076
lhand -18.1147 20.1983
lfingers 7.12502
lthumb 8.15961 50.0207
rfemur 7.74172 5.36213 31.7875
rtibia 21.1703
rfoot -13.9486 -6.15582
rtoes -3.4462
lfemur -28.7051 -1.48433 -13.4427
ltibia 22.1353
lfoot -7.05732 5.41391
ltoes -7.41802
121
root -10.332 17.3091 -15.3549 1.78024 -7.95837 -5.19704
lowerback 6.01546 1.32005 3.92643
upperback 0.566217 2.10259 2.97206
thorax -2.76041 1.01438 0.689935
lowerneck -15.7239 -3.39038 -9.57192
upperneck 21.9372 -3.64761 5.78151
head 9.8472 -1.84293 3.14896
rclavicle -2.52457e-014 -1.59028e-014
rhumerus -26.131 -9.54651 -79.6901
rradius 36.4005
rwrist 3.42957
rhand -13.1077 14.085
rfingers 7.12502
rthumb 12.9893 -15.4906
lclavicle -2.52457e-014 -1.59028e-014
lhumerus -34.7501 14.5711 83.4801
lradius 23.9731
lwrist -10.2516
lhand -17.5854 21.8978
lfingers 7.12502
lthumb 8.6705 51.6997
rfemur 7.79025 5.3779 31.3719
rtibia 22.1879
rfoot -13.8146 -5.9274
rtoes -4.94577
lfemur -28.2944 -1.50056 -13.8725
ltibia 22.4051
lfoot -6.62046 4.30579
ltoes -7.84017
122
root -10.3223 17.3177 -15.1975 1.84561 -8.25412 -4.9342
lowerback 5.68485 1.4366 3.60998
upperback 0.606351 2.21383 2.90123
thorax -2.54097 1.07647 0.793792
lowerneck -15.7941 -3.3953 -9.51095
upperneck 22.0492 -3.64766 5.702
head 9.89762 -1.84711 3.11174
rclavicle -3.88624e-014 -1.11319e-014
rhumerus -26.1239 -9.66068 -79.6582
rradius 36.2379
rwrist 3.6051
rhand -13.7677 13.7697
rfingers 7.12502
rthumb 12.3531 -15.8453
lclavicle -3.88624e-014 -1.11319e-014
lhumerus -34.7314 14.4351 83.5524
lradius 24.1692
lwrist -9.79878
lhand -17.2605 23.0669
lfingers 7.12502
lthumb 8.98399 52.8556
rfemur 7.65006 5.58496 30.9798
rtibia 23.2073
rfoot -13.4493 -5.74455
rtoes -5.46278
lfemur -28.0205 -1.58618 -14.2055
ltibia 22.5607
lfoot -5.50889 3.47902
ltoes -7.80875
